<?xml version="1.0" encoding="UTF-8"?>
<svg width="752pt" height="752pt" version="1.1" viewBox="0 0 752 752" xmlns="http://www.w3.org/2000/svg">
 <g>
  <path d="m308.42 493.4c-1.0508 0-2.1016-0.21484-3.0977-0.63281l-146.34-62.625c-2.5-1.0781-4.2773-3.3672-4.6875-6.0586-0.40625-2.6836 0.60156-5.4141 2.6719-7.1797l30.676-26.199c1.8555-1.582 4.3398-2.2109 6.7305-1.7148l100.26 21.043 52.926-35.77-166.73-22.168c-3.1602-0.41797-5.75-2.6992-6.5703-5.7773-0.82031-3.0781 0.29688-6.3477 2.832-8.2812l42.262-32.262c1.375-1.0469 3.0508-1.6133 4.7773-1.6133h0.007812l233.33 0.28516 68.871-48.992c0.14062-0.097656 0.28516-0.19531 0.42578-0.28125 10.941-6.7617 21.668-10.191 31.895-10.191 15.363 0 28.359 8.0312 34.758 21.477 9.7031 20.383 3.2031 39.465-18.305 53.727l-262.38 171.93c-1.2969 0.84375-2.8047 1.2852-4.3125 1.2852zm-131.59-72.758 130.8 55.977 258.81-169.59c19.645-13.039 16.688-25.547 12.75-33.82-3.7773-7.9414-11.262-12.496-20.539-12.496-7.0938 0-15.184 2.6602-23.406 7.707l-70.711 50.309c-1.332 0.94531-2.9258 1.457-4.5664 1.457h-0.007812l-233.18-0.28516-25.012 19.094 168.39 22.387c3.2422 0.42969 5.8828 2.8164 6.625 6 0.74219 3.1836-0.55078 6.4922-3.2578 8.3242l-72.844 49.234c-1.7695 1.1953-3.9453 1.6289-6.0234 1.1836l-99.734-20.922z"/>
  <path d="m471.54 559.79h-296.43c-4.3477 0-7.875-3.5273-7.875-7.8711 0-4.3516 3.5234-7.8789 7.875-7.8789h296.43c4.3477 0 7.8711 3.5273 7.8711 7.8789-0.003906 4.3398-3.5273 7.8711-7.875 7.8711z"/>
 </g>
</svg>
