<?xml version="1.0" encoding="UTF-8"?>
<svg width="752pt" height="752pt" version="1.1" viewBox="0 0 752 752" xmlns="http://www.w3.org/2000/svg">
 <g>
  <path d="m228.01 464.8h295.99v11.84h-295.99z"/>
  <path d="m275.37 205.63-26.344 46.059c-6.2852 10.879-7.9844 23.809-4.7344 35.945 3.2539 12.133 11.195 22.477 22.078 28.758l205.06 118.39c7.2266 4.1719 15.879 5.0977 23.828 2.5469 7.9453-2.5469 14.449-8.3281 17.906-15.926 2.9453-6.8555 3.2617-14.555 0.89063-21.629-2.3672-7.0781-7.2578-13.031-13.738-16.73l-62.867-36.172 4.2031-113.78-38.953-22.496-50.375 87.141-47.891-27.645 5.3281-44.754zm81.336 108.27 50.316-87.141 22.258 13.086-4.2031 113.78 69.324 39.723c3.9727 2.1875 7.0039 5.7617 8.5078 10.043 1.5078 4.2812 1.3867 8.9648-0.33984 13.16-2.0664 4.5781-5.9766 8.0664-10.762 9.6016-4.7852 1.5352-9.9922 0.97266-14.34-1.5508l-205.06-118.39h0.003906c-8.168-4.707-14.133-12.465-16.574-21.57-2.4414-9.1055-1.1641-18.809 3.5508-26.973l20.602-35.578 17.109 9.8867-5.3281 44.754z"/>
 </g>
</svg>
